PathFileType	4	(X/Y/Z)	9_1_7_p0_0-283_filt_butterworth.trc
DataRate	CameraRate	NumFrames	NumMarkers	Units	OrigDataRate	OrigDataStartFrame	OrigNumFrames
60.0	60.0	5	27	m	60.0	141	283
Frame#	Time	RHip			RKnee			RAnkle			RBigToe			RSmallToe			RHeel			LHip			LKnee			LAnkle			LBigToe			LSmallToe			LHeel			Neck			Head			Nose			RShoulder			RElbow			RWrist			RThumb			RIndex			RPinky			LShoulder			LElbow			LWrist			LThumb			LIndex			LPinky			
		X1	Y1	Z1	X2	Y2	Z2	X3	Y3	Z3	X4	Y4	Z4	X5	Y5	Z5	X6	Y6	Z6	X7	Y7	Z7	X8	Y8	Z8	X9	Y9	Z9	X10	Y10	Z10	X11	Y11	Z11	X12	Y12	Z12	X13	Y13	Z13	X14	Y14	Z14	X15	Y15	Z15	X16	Y16	Z16	X17	Y17	Z17	X18	Y18	Z18	X19	Y19	Z19	X20	Y20	Z20	X21	Y21	Z21	X22	Y22	Z22	X23	Y23	Z23	X24	Y24	Z24	X25	Y25	Z25	X26	Y26	Z26	X27	Y27	Z27	
141	2.35	0.33473624998589135	0.47464114467815594	1.0089236869033193	0.32989831269412906	0.5417023258314482	1.4645259844332361	0.3219766152870188	0.6326730810120694	1.8618274896775415	0.2855159336426143	0.4503577292555991	1.89782781432981	0.35365693351869887	0.5126481600281702	1.9189019422372124	0.28918952354018224	0.7049373238605517	1.9339551540166022	0.13884093796649413	0.4369130818484056	1.022475411074149	0.13499788402077778	0.5132500295736546	1.4670786068849373	0.11130661377329593	0.5960095807307774	1.8689570510391298	0.12257494102693461	0.46171551786476	1.9184043701818343	0.06084206439859777	0.4775980538768149	1.8944048881091295	0.12176148971353484	0.658035596120234	1.9326583808078441	0.20633126755370274	0.44144915016999153	0.505851678018872	0.19401084060382523	0.34309007419965976	0.2613879952072777	0.23327900162436832	0.31944527631523617	0.3915886793980532	0.35483920754212717	0.44779584260539895	0.5880845335438994	0.4108608595023753	0.48788237201657253	0.8567861271313499	0.3402273522066392	0.34799692721532477	1.0586844219796134	0.2505840931879346	0.33166557201801256	1.150912649126103	0.26154445010506855	0.3457986608954824	1.1763670053223876	0.2952523382627909	0.314253547624315	1.166079184227702	0.0694373425479332	0.4525874508793827	0.603226503757506	0.05166182932928881	0.3972732882526676	0.870079587671633	0.19014916456852815	0.3217188945273592	1.0541743201399567	0.29156441763175	0.3142476039778689	1.1044562078253117	0.29739237065774415	0.309571652119205	1.1433646472080232	0.2444291067632259	0.3476210850413386	1.1774047658202056
142	2.3666666666666667	0.3351550684243282	0.4740510036545914	1.0075506326311865	0.33002972485480503	0.5413212692984308	1.4638424745731906	0.3217499637558287	0.6332505731048231	1.8624368190700704	0.285510031759789	0.4503764576699052	1.897967294225193	0.3536852474442046	0.513000016679339	1.920230515736733	0.28960508964058407	0.7064026639924665	1.9347016443339489	0.1393979796523495	0.43650409824088	1.0204105909214067	0.13466967191220364	0.5141840731421432	1.4665789663004565	0.11144774990771864	0.595910547776908	1.869249834292479	0.12279084835298025	0.46181473153494934	1.9196931945956095	0.06082713814063879	0.4775206595731615	1.8943807291970203	0.12192448111571881	0.6619279035123512	1.9340692635208163	0.20584356111691574	0.442984715355074	0.5059361226713233	0.19171036841742808	0.34292921285823436	0.261415187511574	0.232763076114041	0.32073843800825586	0.3917630026781209	0.35255776840197184	0.4432343119865187	0.5876947137495927	0.4111067536993037	0.4881368463530884	0.8568692224589127	0.3394923436210522	0.34550554197616	1.0590612126297707	0.24823407874965794	0.3319899295263707	1.150584870887279	0.25949688930464954	0.34757176539436563	1.1768152548408273	0.293675223382436	0.318921161373587	1.167801286809367	0.06820654065169937	0.4562132352145325	0.6036296264850802	0.05159039719686199	0.39730855490662814	0.8700694165505203	0.18842748861457284	0.3263226778052564	1.055403501362159	0.2887544223220435	0.3210675697512406	1.1060901934701544	0.2935369761909569	0.3168970445908924	1.1454966436124254	0.24261719395061632	0.35082421504019756	1.1775489078257524
143	2.3833333333333333	0.33555610521511803	0.473845010257319	1.0068342017423617	0.33017916007567677	0.5407793177410255	1.4625086687214601	0.32140980018662757	0.6337800289275617	1.8638292502026315	0.285480985720287	0.45032967948984537	1.8981590858547854	0.3540287508977465	0.5132972015368236	1.9223634191359145	0.29059258928688314	0.7100939167959341	1.936518652270474	0.13965935640242305	0.43704253198591114	1.019574817477592	0.13478113278724657	0.5137162738782579	1.466301095827727	0.11172417351020833	0.5972593114029006	1.870421460899359	0.12285725979931758	0.4618774760206016	1.919289537482474	0.06079395998717306	0.4773621723550707	1.8942871519283024	0.12256455873730752	0.6676553702402858	1.936355595501794	0.2058365692216852	0.4433728990832327	0.5059051735705438	0.1910608366602339	0.342804580209703	0.2613918986077252	0.23120944316141517	0.32384628337221233	0.3918181323063562	0.3512579089974012	0.43996440796942027	0.5874005155755496	0.41134008627934604	0.4886947866224951	0.857342486550035	0.3393050688211199	0.3446625951920642	1.059420232402789	0.2466142077782695	0.33051650081197953	1.1494865636168596	0.2570406160147406	0.3472421799440485	1.1764999209974487	0.29143468603396316	0.3238196884240787	1.1697316637535309	0.06767289245311028	0.45753193286927274	0.6038481525334823	0.0515183247569069	0.3974284264809078	0.8696822693467665	0.18732727773644142	0.32976497625658124	1.0558027455921217	0.2855307841491371	0.3271484418365905	1.108022301016583	0.2891262217105955	0.3242139940136594	1.1470561820682934	0.23977116080840072	0.3518807195817697	1.1777673160507913
144	2.4	0.33548173327536945	0.4748288317271151	1.00677031638168	0.33010164958299054	0.5406352145551387	1.4613922840802323	0.321038536945826	0.6341670729417974	1.8654812310284252	0.2854422628112179	0.45024694264338094	1.8983174237947422	0.35473475405924965	0.5133968283899063	1.9248910470687135	0.2918545302898843	0.7149494869864498	1.9388319354000496	0.1390500951908597	0.43939735402893826	1.0195878694235911	0.13436776202419387	0.5132493777232857	1.466226688314221	0.11236483843294529	0.6010105348627306	1.8725220229743018	0.1227324972032012	0.46186768760711705	1.9171205337454076	0.06077132659484312	0.47724581522128645	1.8942135332118888	0.12327821691450662	0.6718714482705455	1.9383052948654729	0.2058889415822474	0.44317948051138245	0.5058293972551687	0.1912446932770848	0.3425724325357295	0.26137776404406965	0.22865172137421352	0.3274676324587058	0.3915719523098263	0.3509251442595785	0.4386983241351978	0.5872707093292865	0.4114292842551676	0.489337191517049	0.8580436222005008	0.33932105114136624	0.34472476823735804	1.0592334896646898	0.2448056853714711	0.3277249494541136	1.147034836104607	0.2540176553394971	0.34587615822111056	1.1755647903734034	0.2881729468769202	0.32971758151585046	1.172059838221885	0.06740286384409226	0.4563926532262805	0.6037608570764492	0.05146140735592031	0.397740232153741	0.8687056400890649	0.18681476776667902	0.3312156644657745	1.0553649844740542	0.2827801983877778	0.33088564172973733	1.109518184955235	0.28564019168948995	0.32975627885918485	1.147800674404651	0.23608913314858182	0.3516796115786964	1.178228197037485
145	2.4166666666666665	0.3344565508426449	0.47785826389238867	1.007462597778486	0.3294808310003793	0.5421583129973564	1.4618268648457509	0.3207769617002081	0.6343731678569187	1.8666451419281795	0.28540710204574155	0.4501772776374229	1.898409521832851	0.35536275398874123	0.5133771272977644	1.9267483485111907	0.29279281522383693	0.718634033010655	1.9404914645171658	0.13735392078961844	0.44384735046877655	1.020131190514431	0.1325435777597897	0.5143161340848983	1.4668460710811846	0.11321863574028818	0.6058801893252537	1.8746055386776195	0.12254498090097297	0.4618158218207235	1.914952134208805	0.0608284202684206	0.4775658980085785	1.8943813857943381	0.12367203024332035	0.6734565035313718	1.9391953146852803	0.20565129514856373	0.4418983508576082	0.5057075136600631	0.1915799169765948	0.34226124386027523	0.26139410375109395	0.2261045485172528	0.3298767592144092	0.3910721341538428	0.3510299704702735	0.43869321830962954	0.5872539316291909	0.41137963281374135	0.4897475925933137	0.8584142525615153	0.3389877486282467	0.3447017139467669	1.058034771996691	0.24215507878386083	0.3242578506341608	1.1439945947998678	0.2504535134026243	0.34482033944490226	1.1744170850304556	0.28444547456056407	0.33641295593016235	1.174648345796978	0.06690604356273275	0.45314696545736066	0.6034131475877889	0.05143547969926725	0.3981817544049644	0.8674291930930846	0.18616799600132147	0.33137064490636076	1.0542717610762142	0.2812521262019241	0.3320871623452839	1.1101583115006497	0.2833239275037158	0.33438449522183883	1.1486223656150827	0.23315972971386184	0.35147175198729375	1.1786993492529827
